REM MD5 63388eeb2093f006cb8175d5d5d24257
FILE "Euro Demo 10-99 (Germany).bin" BINARY
  TRACK 01 MODE2/2352
    INDEX 01 00:00:00
  TRACK 02 AUDIO
    INDEX 00 53:53:52
    INDEX 01 53:55:52
  TRACK 03 AUDIO
    INDEX 00 57:35:60
    INDEX 01 57:37:60
REM LEADOUT 60:39:17
